<?xml version="1.0" encoding="UTF-8" standalone="no"?>
<svg
     xmlns:dc="http://purl.org/dc/elements/1.1/"
     xmlns:cc="http://creativecommons.org/ns#"
     xmlns:rdf="http://www.w3.org/1999/02/22-rdf-syntax-ns#"
     xmlns:svg="http://www.w3.org/2000/svg"
     xmlns="http://www.w3.org/2000/svg"
     xmlns:sodipodi="http://sodipodi.sourceforge.net/DTD/sodipodi-0.dtd"
     xmlns:inkscape="http://www.inkscape.org/namespaces/inkscape"
     width="500"
     height="200"
     viewBox="0 0 288500 68000"
     version="1.1"
     id="svg75"
     sodipodi:docname="eye.svg"
     inkscape:version="0.92.1 r15371">
    <metadata
         id="metadata81">
        <rdf:RDF>
            <cc:Work
                 rdf:about="">
                <dc:format>image/svg+xml</dc:format>
                <dc:type
                     rdf:resource="http://purl.org/dc/dcmitype/StillImage" />
                <dc:title></dc:title>
            </cc:Work>
        </rdf:RDF>
    </metadata>
    <defs
         id="defs79" />
    <sodipodi:namedview
         pagecolor="#ffffff"
         bordercolor="#666666"
         borderopacity="1"
         objecttolerance="10"
         gridtolerance="10"
         guidetolerance="10"
         inkscape:pageopacity="0"
         inkscape:pageshadow="2"
         inkscape:window-width="1936"
         inkscape:window-height="1122"
         id="namedview77"
         showgrid="false"
         units="px"
         inkscape:zoom="1.4142136"
         inkscape:cx="387.45732"
         inkscape:cy="16.01891"
         inkscape:window-x="0"
         inkscape:window-y="0"
         inkscape:window-maximized="0"
         inkscape:current-layer="svg75" />
    <g
         id="farbe-drei-zapfenarten"
         transform="matrix(467.21831,0,0,467.21831,10153.673,-43932.016)">
        <path
             d="M 537.1,165.5 H 573"
             id="path2"
             inkscape:connector-curvature="0"
             style="fill:none;stroke:#b6d8f1;stroke-width:16" />
        <path
             d="m 138.8,55.74 328.3,175.9"
             id="path4"
             inkscape:connector-curvature="0"
             style="fill:none;stroke:#b6d8f1;stroke-width:9" />
        <path
             d="M 138.8,276.7 468.3,105.3"
             id="path6"
             inkscape:connector-curvature="0"
             style="fill:none;stroke:#b6d8f1;stroke-width:9" />
        <path
             d="m 120.2,158.4 v 92.8"
             id="path8"
             inkscape:connector-curvature="0"
             style="fill:#008000;fill-rule:evenodd;stroke:#008000;stroke-width:12.14000034" />
        <path
             d="m 120.5,78.69 a 40.96,55.59 0 0 0 -20.2,47.81 40.96,55.59 0 0 0 20.2,47.9 40.96,55.59 0 0 0 20.4,-47.9 40.96,55.59 0 0 0 -20.4,-47.81 z"
             id="path10"
             inkscape:connector-curvature="0"
             style="fill:#de769e" />
        <path
             d="m 82,93.71 c 3.64,7.29 4.55,15.99 4.55,22.59 v 25.8 c 0,17.7 14.65,32 31.95,32 h 2 V 110.3 C 113.1,100.2 94.9,88.4 82,93.71 Z"
             id="path12"
             inkscape:connector-curvature="0"
             style="fill:#ee669a" />
        <path
             d="m 159.6,93.71 c -3.2,7.29 -5,15.99 -5,22.59 v 25.8 c 0,17.7 -14.2,32 -31.3,32 h -2.8 v -63.8 c 7.3,-10.1 26.6,-21.9 39.1,-16.59 z"
             id="path14"
             inkscape:connector-curvature="0"
             style="fill:#eb4b88" />
        <path
             d="m 51.56,174.9 a 27.32,27.32 0 0 0 9.96,23.6 27.32,27.32 0 0 0 25.1,5 27.32,27.32 0 0 0 -9.96,-23.6 27.32,27.32 0 0 0 -25.1,-5 z"
             id="path16"
             inkscape:connector-curvature="0"
             style="fill:#008000;stroke:#008000;stroke-width:8;stroke-linejoin:round" />
        <path
             d="m 193.4,174.9 a 27.32,27.32 0 0 1 -9.9,23.6 27.32,27.32 0 0 1 -25.1,5 27.32,27.32 0 0 1 9.9,-23.6 27.32,27.32 0 0 1 25.1,-5 z"
             id="path18"
             inkscape:connector-curvature="0"
             style="fill:#008000;stroke:#008000;stroke-width:8;stroke-linejoin:round" />
        <path
             d="m 83.66,204.9 c 24.34,1.1 26.64,12.9 36.94,40"
             id="path20"
             inkscape:connector-curvature="0"
             style="fill:none;stroke:#008000;stroke-width:5" />
        <path
             d="m 157.8,204.9 c -24.3,1.1 -26.6,12.9 -36.9,40"
             id="path22"
             inkscape:connector-curvature="0"
             style="fill:none;stroke:#008000;stroke-width:5" />
        <ellipse
             rx="26"
             ry="52"
             cy="165.8"
             cx="356.60001"
             id="ellipse24"
             style="fill:#31a2f0" />
        <circle
             cx="118.4"
             cy="166.8"
             r="109.3"
             id="circle26"
             style="fill:none;stroke:#b6d8f1;stroke-width:16.15999985;stroke-linejoin:round" />
        <path
             d="m 366.2,91.55 c -1.2,-0.1 -2.5,0.33 -3.5,1.24 l -0.5,0.41 c -2,1.88 -2.2,5 -0.3,7.1 l 0.1,0.1 a 90.45,90.45 0 0 1 8.2,-6.67 l -0.5,-0.5 c -1,-1.04 -2.2,-1.6 -3.5,-1.68 z"
             id="path28"
             inkscape:connector-curvature="0"
             style="fill:#ff0000" />
        <circle
             cy="166.8"
             cx="428.20001"
             r="109.3"
             id="circle30"
             style="fill:none;stroke:#b6d8f1;stroke-width:16.15999985;stroke-linejoin:round" />
        <path
             d="m 384.6,78.38 c -0.7,0.1 -1.3,0.23 -1.9,0.55 l -0.6,0.27 c -2.4,1.34 -3.4,4.32 -2,6.82 l 0.6,1.1 a 90.45,90.45 0 0 1 9.6,-4.44 l -0.9,-1.63 c -1,-1.86 -2.9,-2.84 -4.8,-2.67 z"
             id="path32"
             inkscape:connector-curvature="0"
             style="fill:#0000ff" />
        <path
             d="m 406.2,70.26 c -0.3,0 -0.7,0.1 -1,0.14 l -0.7,0.11 c -2.6,0.73 -4.3,3.38 -3.6,6.15 l 0.7,2.57 a 90.45,90.45 0 0 1 10.4,-1.9 l -0.8,-3.27 c -0.7,-2.4 -2.8,-3.91 -5,-3.8 z"
             id="path34"
             inkscape:connector-curvature="0"
             style="fill:#008000" />
        <path
             d="m 430.9,67.44 c -2.7,0 -5.1,2.12 -5.1,4.98 l -0.1,4.25 a 90.45,90.45 0 0 1 10.6,0.96 l 0.1,-5 c 0,-2.85 -2.1,-5.06 -4.8,-5.11 l -0.7,-0.1 z"
             id="path36"
             inkscape:connector-curvature="0"
             style="fill:#ff0000" />
        <path
             d="m 453,70.49 c -2.3,-0.1 -4.5,1.36 -5.1,3.79 l -1.4,5.48 a 90.45,90.45 0 0 1 10.1,3.34 l 1.6,-6.15 c 0.6,-2.77 -0.9,-5.41 -3.5,-6.08 L 454,70.61 c -0.3,-0.1 -0.7,-0.12 -1,-0.14 z"
             id="path38"
             inkscape:connector-curvature="0"
             style="fill:#0000ff" />
        <path
             d="m 474.3,78.76 c -1.9,-0.17 -3.9,0.75 -4.9,2.65 l -3.3,6.1 a 90.45,90.45 0 0 1 9.1,5.68 l 3.6,-6.74 c 1.2,-2.55 0.4,-5.47 -2,-6.74 l -0.6,-0.42 C 475.6,79 475,78.82 474.3,78.76 Z"
             id="path40"
             inkscape:connector-curvature="0"
             style="fill:#008000" />
        <path
             d="m 493.5,92.96 c -1.3,0 -2.5,0.56 -3.5,1.62 l -5.7,6.12 a 90.45,90.45 0 0 1 7.4,7.6 l 6.1,-6.4 c 1.8,-2.21 1.7,-5.23 -0.2,-7.08 l -0.5,-0.55 c -1,-0.9 -2.3,-1.35 -3.6,-1.32 z"
             id="path42"
             inkscape:connector-curvature="0"
             style="fill:#ff0000" />
        <path
             d="m 509.5,112 c -1,0 -2,0.2 -2.9,0.8 l -7.8,4.9 a 90.45,90.45 0 0 1 5.3,9.3 l 8.2,-5.1 c 2.3,-1.7 3,-4.7 1.6,-6.9 l -0.3,-0.7 c -0.9,-1.4 -2.5,-2.2 -4.1,-2.3 z"
             id="path44"
             inkscape:connector-curvature="0"
             style="fill:#0000ff" />
        <path
             d="m 524.3,137.6 c -0.9,-2.5 -3.7,-4.2 -6.4,-3.3 l -9.5,3 3.2,10.2 9.5,-2.9 c 2.6,-1.1 4.1,-3.8 3.3,-6.3 z"
             id="path46"
             inkscape:connector-curvature="0"
             style="fill:#008000" />
        <path
             d="m 528.6,162.1 c -0.2,-2.6 -2.5,-4.9 -5.3,-4.7 l -10,0.5 0.6,10.7 9.9,-0.5 c 2.8,-0.4 4.9,-2.6 4.8,-5.2 z"
             id="path48"
             inkscape:connector-curvature="0"
             style="fill:#ff0000" />
        <path
             d="m 512.8,179.9 -2.1,10.5 9.7,2 c 2.8,0.4 5.4,-1.2 5.9,-3.8 l 0.2,-0.7 c 0.5,-2.6 -1.1,-5.4 -3.9,-6 z"
             id="path50"
             inkscape:connector-curvature="0"
             style="fill:#0000ff" />
        <path
             d="m 506.9,200.7 a 90.45,90.45 0 0 1 -4.6,9.8 l 8.7,4.3 c 2.6,1.1 5.5,0.2 6.6,-2.2 L 518,212 c 1.2,-2.4 0.3,-5.5 -2.2,-6.8 z"
             id="path52"
             inkscape:connector-curvature="0"
             style="fill:#008000" />
        <path
             d="m 495.2,221.3 a 90.45,90.45 0 0 1 -7,8.2 l 6.6,5.9 c 2.2,1.8 5.2,1.7 6.9,-0.3 l 0.6,-0.4 c 1.8,-2 1.8,-5.2 -0.3,-7.2 z"
             id="path54"
             inkscape:connector-curvature="0"
             style="fill:#ff0000" />
        <path
             d="m 479.5,237.6 a 90.45,90.45 0 0 1 -8.9,6.3 l 4.1,6.3 c 1.7,2.3 4.6,3 6.8,1.5 l 0.7,-0.3 c 2.2,-1.4 3,-4.5 1.5,-7 z"
             id="path56"
             inkscape:connector-curvature="0"
             style="fill:#0000ff" />
        <path
             d="m 459.7,249.5 a 90.45,90.45 0 0 1 -10.1,3.9 l 1.9,5.8 c 1,2.7 3.6,4.1 6.1,3.2 l 0.8,-0.1 c 2.5,-0.7 4.1,-3.5 3.3,-6.3 z"
             id="path58"
             inkscape:connector-curvature="0"
             style="fill:#008000" />
        <path
             d="m 435,256.5 a 90.45,90.45 0 0 1 -10.8,0.9 l 0.1,4.4 c 0.2,2.9 2.3,4.9 5,4.8 l 0.8,0.1 c 2.6,0.1 4.9,-2.2 4.9,-5.1 z"
             id="path60"
             inkscape:connector-curvature="0"
             style="fill:#ff0000" />
        <path
             d="m 400,254.4 -0.7,2.7 c -0.6,2.9 0.9,5.4 3.5,6 l 0.8,0.3 c 2.5,0.8 5.3,-0.8 6.1,-3.6 l 0.9,-3.3 A 90.45,90.45 0 0 1 400,254.4 Z"
             id="path62"
             inkscape:connector-curvature="0"
             style="fill:#0000ff" />
        <path
             d="m 379.4,246.3 -0.6,1.2 c -1.3,2.7 -0.4,5.4 2,6.6 l 0.7,0.5 c 2.2,1.4 5.3,0.5 6.8,-2 l 1,-1.8 a 90.45,90.45 0 0 1 -9.9,-4.5 z"
             id="path64"
             inkscape:connector-curvature="0"
             style="fill:#008000" />
        <path
             d="m 366.3,237.4 -0.4,0.5 c -1.7,2.4 -1.3,5.2 0.9,6.8 l 0.6,0.6 c 1.9,1.8 5.1,1.4 7,-0.8 l 0.7,-0.9 a 90.45,90.45 0 0 1 -8.8,-6.2 z"
             id="path66"
             inkscape:connector-curvature="0"
             style="fill:#ff0000" />
        <ellipse
             rx="17.530001"
             ry="35.07"
             cy="166.60001"
             cx="351.70001"
             id="ellipse68"
             style="fill:#06365a" />
        <path
             d="m 138.8,55.74 210.1,113.1"
             id="path70"
             inkscape:connector-curvature="0"
             style="fill:none;stroke:#b6d8f1;stroke-width:9" />
        <path
             d="M 138.8,276.7 349.6,166.3"
             id="path72"
             inkscape:connector-curvature="0"
             style="fill:none;stroke:#b6d8f1;stroke-width:9" />
    </g>
</svg>
